<?xml version="1.0" standalone="no"?>
<!DOCTYPE svg PUBLIC "-//W3C//DTD SVG 20010904//EN"
 "http://www.w3.org/TR/2001/REC-SVG-20010904/DTD/svg10.dtd">
<svg version="1.0" xmlns="http://www.w3.org/2000/svg"
 width="350.000000pt" height="318.000000pt" viewBox="0 0 350.000000 318.000000"
 preserveAspectRatio="xMidYMid meet">
<metadata>
Created by potrace 1.15, written by Peter Selinger 2001-2017
</metadata>
<g transform="translate(0.000000,318.000000) scale(0.100000,-0.100000)"
fill="#000000" stroke="none">
<path d="M2180 2794 c-58 -11 -70 -15 -90 -36 -11 -12 -18 -29 -15 -39 4 -10
-4 -28 -19 -44 -21 -22 -24 -34 -21 -73 3 -26 5 -87 5 -137 0 -107 24 -223 61
-297 16 -31 10 -50 -27 -84 -40 -38 -51 -41 -57 -16 -3 11 -5 9 -6 -8 -1 -17
-11 -32 -29 -42 -47 -28 -114 -174 -104 -225 2 -7 -2 -13 -8 -13 -5 0 -10 4
-10 9 0 13 -64 121 -87 147 -26 28 -43 61 -44 81 0 15 -2 15 -8 -2 -8 -18 -14
-14 -71 42 -52 52 -61 66 -56 87 3 14 2 28 -4 31 -5 3 -10 13 -10 21 0 8 -11
32 -25 52 -32 47 -32 35 1 -29 14 -28 24 -58 22 -67 -2 -11 -11 -2 -23 25 -11
23 -23 43 -27 43 -11 0 -10 -18 2 -25 6 -3 10 -13 10 -21 0 -19 86 -123 165
-199 35 -33 74 -78 89 -100 36 -57 76 -169 78 -221 1 -24 6 -44 10 -44 4 0 8
-25 8 -55 0 -34 -4 -55 -11 -55 -8 0 -9 13 -5 39 3 23 2 42 -4 46 -6 4 -10 -6
-10 -22 0 -24 -4 -21 -37 32 -20 33 -49 75 -65 93 -15 18 -28 44 -28 57 0 13
-4 26 -9 29 -9 6 -8 99 3 136 6 22 5 23 -5 7 -14 -23 -17 -41 -18 -90 l-1 -39
-51 57 c-29 30 -54 53 -57 50 -3 -2 -11 0 -18 6 -8 7 -14 7 -19 -1 -3 -5 -1
-10 5 -10 7 0 10 -6 7 -14 -3 -8 5 -24 19 -37 13 -12 24 -26 24 -30 0 -4 -19
-10 -42 -14 -24 -4 -53 -13 -65 -21 -30 -19 -43 -18 -43 5 0 10 -18 38 -40 62
-22 24 -40 40 -40 35 0 -5 16 -26 35 -47 43 -48 44 -71 4 -117 -18 -20 -44
-61 -58 -92 -33 -72 -38 -47 -13 77 11 54 18 112 17 128 -2 17 -5 41 -6 55 -1
14 -5 -6 -8 -45 l-6 -70 -15 44 c-8 24 -27 58 -42 75 -15 17 -28 34 -28 38 0
5 -5 8 -11 8 -6 0 -21 8 -33 18 -23 18 -23 44 1 77 14 19 14 19 13 -5 -4 -46
0 -70 10 -70 6 0 10 20 10 43 0 51 24 80 70 83 35 2 103 52 96 70 -3 8 4 20
14 27 11 8 17 17 14 20 -4 3 3 21 15 40 11 19 22 44 24 56 2 13 9 26 15 30 13
8 42 73 42 95 0 9 -7 12 -19 9 -30 -8 -35 16 -6 29 l26 12 -28 12 c-25 11 -26
12 -6 13 12 1 25 6 28 11 4 6 11 8 16 5 24 -15 94 96 86 137 -3 17 -5 15 -6
-9 0 -18 -6 -33 -11 -33 -6 0 -9 22 -8 51 3 62 -14 78 -81 80 -108 3 -154 -5
-191 -32 -32 -24 -35 -31 -45 -111 -6 -47 -25 -68 -25 -27 0 11 -5 17 -10 14
-6 -3 -7 -18 -4 -31 4 -14 1 -36 -6 -49 -11 -20 -9 -30 18 -77 17 -29 33 -71
37 -93 4 -22 9 -49 11 -60 5 -18 4 -19 -6 -2 -11 17 -13 17 -41 0 -16 -10 -36
-28 -44 -40 -19 -29 -57 -64 -63 -58 -3 2 1 11 8 20 10 13 9 15 -8 15 -41 0
-71 74 -47 120 17 33 37 42 73 34 26 -5 26 -5 7 11 -21 17 -78 13 -101 -6 -7
-6 -9 0 -6 19 3 23 0 28 -20 29 -12 1 -24 7 -26 13 -3 8 -8 8 -17 0 -14 -12
-48 -3 -43 12 2 6 -16 30 -40 55 -41 41 -44 47 -33 70 15 32 9 38 -21 21 -12
-7 -24 -13 -26 -14 -1 -1 18 -38 43 -83 25 -45 45 -84 45 -87 0 -3 9 -18 19
-33 11 -15 42 -66 69 -112 26 -46 57 -97 68 -114 21 -32 13 -30 -43 11 -17 13
-36 24 -42 24 -6 0 -11 3 -11 8 0 12 -58 72 -69 72 -6 0 -11 5 -11 11 0 5 -10
3 -22 -5 -28 -20 -52 -21 -45 -2 4 10 0 12 -14 9 -13 -4 -19 0 -19 10 0 9 -9
19 -21 22 -15 5 -19 13 -16 26 4 16 -1 21 -24 26 -39 8 -131 94 -119 113 6 10
0 19 -20 32 -19 11 -28 23 -24 33 8 20 -2 19 -41 -5 -31 -19 -65 -19 -65 1 0
19 -48 8 -63 -15 -23 -35 -17 -61 18 -80 29 -16 70 -68 70 -91 0 -15 45 -76
76 -105 27 -24 69 -92 69 -110 0 -5 -14 -16 -31 -24 -31 -15 -49 -14 -49 5 0
5 -9 18 -21 30 -15 15 -29 20 -49 16 -24 -5 -29 -3 -33 21 -3 15 -1 35 5 46 9
16 7 18 -6 13 -10 -4 -16 -1 -16 7 0 8 -6 17 -12 19 -8 3 -7 6 4 6 9 1 20 6
24 13 5 8 0 9 -14 6 -12 -4 -25 -2 -28 3 -5 9 -18 4 -53 -20 -11 -7 -11 -12 5
-29 11 -10 26 -21 34 -24 11 -4 9 -8 -9 -17 -31 -17 -42 -5 -48 53 -5 43 -23
66 -23 29 0 -13 -3 -14 -12 -5 -7 7 -27 12 -44 12 -29 0 -34 -4 -44 -37 -7
-21 -19 -48 -27 -61 -18 -29 -12 -37 45 -66 26 -14 69 -43 96 -65 26 -23 55
-41 64 -41 9 0 34 -9 56 -19 23 -10 53 -21 67 -25 14 -3 31 -17 37 -31 11 -23
9 -26 -15 -36 -15 -5 -38 -9 -52 -7 -19 2 -30 -5 -46 -29 l-22 -31 -12 33 c-6
18 -9 41 -5 51 3 11 2 15 -3 8 -20 -27 -45 -32 -64 -13 -11 11 -32 19 -47 19
-36 0 -75 32 -66 54 8 20 -9 21 -26 1 -18 -21 -30 -19 -30 6 0 19 -4 21 -35
16 -40 -7 -46 7 -19 47 17 27 4 45 -16 21 -15 -18 -32 -150 -25 -192 7 -37 22
-50 38 -34 17 17 64 13 71 -5 5 -13 15 -15 42 -11 30 5 40 2 57 -18 18 -20 33
-25 77 -26 30 -1 62 -8 70 -15 8 -7 26 -14 40 -16 l25 -4 -29 -9 c-17 -5 -49
-3 -81 5 -49 12 -55 11 -83 -9 -17 -11 -37 -21 -46 -21 -9 0 -16 -5 -16 -10 0
-14 60 -39 76 -33 6 2 14 -3 17 -12 5 -12 15 -14 47 -9 33 5 40 4 40 -10 0
-15 3 -15 30 -1 36 19 41 19 34 0 -8 -20 20 -20 36 0 13 16 40 20 40 7 0 -13
-31 -37 -66 -51 -37 -15 -88 -7 -157 22 -26 11 -50 17 -53 14 -8 -7 67 -115
102 -148 22 -20 44 -29 89 -34 136 -15 220 -5 228 27 3 11 10 17 16 13 14 -8
-4 -45 -22 -45 -7 0 -26 -9 -44 -20 -31 -19 -32 -20 -18 -47 20 -38 19 -53 -4
-53 -17 0 -19 -6 -17 -40 2 -22 -1 -40 -7 -40 -6 0 -8 -23 -4 -60 3 -33 1 -60
-4 -60 -5 0 -9 7 -9 16 0 11 -8 15 -27 12 -25 -3 -28 1 -36 40 -5 24 -13 40
-18 36 -6 -3 -13 3 -16 15 -3 12 -9 21 -14 21 -5 0 -9 7 -9 15 0 21 -30 19
-104 -9 -36 -14 -85 -28 -111 -31 -25 -4 -55 -15 -65 -24 -12 -9 -38 -70 -63
-146 -24 -71 -58 -168 -75 -214 -18 -46 -32 -95 -32 -108 0 -29 32 -43 101
-43 36 0 54 -5 69 -20 24 -24 25 -19 -1 -116 -19 -71 -20 -86 -9 -145 11 -57
10 -73 -4 -115 -24 -71 -21 -120 8 -139 21 -14 41 -15 152 -6 128 10 129 10
181 -16 42 -21 61 -25 100 -20 48 5 48 5 115 87 29 35 43 82 39 126 -1 16 -49
61 -80 77 -30 15 -138 8 -134 -8 2 -5 -15 -10 -37 -10 -35 -1 -39 2 -35 20 3
11 2 14 -1 8 -9 -20 -24 -15 -24 6 0 22 -31 81 -42 81 -16 0 -77 69 -84 94 -3
14 -10 26 -15 26 -14 0 -11 36 4 48 7 6 67 16 133 22 65 6 142 18 170 26 34
11 68 14 100 10 186 -24 366 -16 372 17 2 9 -20 59 -50 110 -29 50 -66 119
-82 152 -17 33 -33 62 -38 63 -18 8 -6 35 34 78 65 70 107 88 208 88 89 0 127
-12 164 -53 19 -21 19 -21 -5 -21 -14 0 -34 -7 -46 -15 -12 -8 -29 -12 -39 -8
-10 4 -15 2 -11 -4 3 -5 -1 -22 -9 -38 -14 -27 -14 -28 3 -13 16 14 21 15 43
3 14 -8 31 -14 39 -15 21 0 131 -52 131 -61 0 -5 5 -9 11 -9 16 0 121 -91 114
-98 -3 -3 -16 5 -30 18 -36 33 -44 16 -10 -20 20 -20 24 -30 14 -30 -8 0 -20
5 -27 12 -7 7 -12 9 -12 4 0 -15 29 -36 50 -36 34 0 78 -28 95 -60 21 -41 19
-95 -11 -218 -36 -150 -54 -265 -54 -345 0 -38 -5 -77 -10 -87 -12 -23 -60
-36 -160 -45 -196 -16 -211 -26 -70 -46 180 -25 766 -9 785 21 5 8 -55 15
-217 26 -91 6 -98 8 -127 38 -50 52 -61 92 -61 225 0 66 6 150 14 188 8 37 19
109 26 158 17 125 60 187 162 230 33 13 40 13 72 0 30 -13 35 -19 27 -33 -15
-29 -2 -82 20 -82 12 0 23 -10 29 -25 5 -14 15 -27 22 -29 7 -2 49 -15 93 -29
70 -22 111 -27 335 -37 249 -13 440 -36 447 -55 5 -17 -40 -61 -82 -81 -39
-18 -119 -68 -141 -89 -7 -5 -24 -19 -39 -30 -41 -30 -66 -88 -68 -159 -1 -37
3 -69 10 -77 7 -8 17 -36 23 -63 15 -69 36 -96 74 -96 17 0 49 -9 71 -20 34
-17 59 -20 197 -20 154 0 238 10 281 34 57 31 65 39 57 61 -4 12 -20 70 -35
130 -27 110 -27 110 -14 265 12 152 21 201 36 199 35 -6 43 35 22 116 -19 72
-37 171 -44 231 -7 63 -42 124 -73 124 -9 0 -44 12 -77 25 l-60 25 -29 -22
c-21 -15 -42 -21 -75 -19 -53 2 -54 2 -55 41 -1 33 6 37 74 42 29 3 42 13 87
68 57 70 103 151 123 215 7 22 21 49 31 60 10 11 25 36 33 55 8 19 28 52 45
74 54 67 64 145 32 237 -21 62 -66 141 -56 99 6 -23 4 -25 -32 -24 -21 1 -45
5 -55 8 -10 5 -16 3 -15 -6 2 -59 -38 -113 -99 -130 -19 -5 -32 -13 -29 -18 3
-5 1 -11 -5 -15 -5 -3 -10 -15 -10 -25 0 -27 -18 -35 -39 -16 -25 23 -44 21
-31 -3 13 -25 -3 -71 -26 -71 -10 0 -14 -5 -10 -15 3 -8 2 -15 -1 -15 -14 0
-93 42 -93 50 0 11 68 70 83 71 7 0 4 3 -5 7 -15 6 -14 12 13 51 16 25 61 73
100 108 69 62 70 63 129 63 33 0 60 4 60 10 0 6 -7 10 -15 10 -8 0 -15 5 -15
10 0 6 10 10 21 10 20 0 20 1 6 24 -9 12 -19 40 -22 60 -8 41 -39 86 -60 86
-17 0 -10 -26 13 -52 14 -17 13 -18 -11 -18 -14 0 -38 11 -54 24 -32 27 -47
19 -50 -27 -1 -28 -30 -60 -45 -50 -5 2 -15 -3 -24 -11 -8 -9 -22 -16 -30 -16
-8 0 -14 -7 -14 -15 0 -8 -4 -15 -8 -15 -4 0 -8 -12 -7 -27 0 -20 -5 -28 -17
-27 -10 1 -20 -7 -23 -17 -4 -11 -15 -19 -25 -19 -13 0 -17 -5 -14 -15 4 -10
0 -15 -11 -15 -9 0 -13 -4 -10 -10 3 -5 -5 -12 -19 -16 -16 -4 -23 -11 -19
-20 3 -8 0 -14 -6 -14 -6 0 -11 -6 -11 -14 0 -22 -16 -27 -44 -15 -31 14 -33
25 -8 34 19 5 43 46 47 75 4 36 91 150 115 150 5 0 10 9 10 20 0 11 5 20 10
20 6 0 10 9 10 20 0 11 7 23 15 26 8 4 15 11 15 18 0 7 15 26 33 43 17 18 49
48 70 68 l38 37 -10 49 c-21 97 -64 140 -91 90 -13 -26 -13 -27 9 -48 10 -10
22 -28 25 -40 7 -22 6 -22 -21 -8 -43 23 -63 19 -75 -16 -10 -28 -13 -30 -54
-28 -31 2 -51 -2 -64 -14 -11 -9 -24 -17 -30 -17 -5 0 -12 -17 -16 -37 -4 -28
-20 -52 -60 -90 -30 -29 -54 -55 -54 -59 0 -9 -41 -44 -52 -44 -4 0 -8 -7 -8
-15 0 -8 -6 -15 -14 -15 -8 0 -17 -6 -20 -12 -4 -9 -10 -6 -22 10 -9 12 -21
22 -27 22 -5 0 -3 -8 6 -18 21 -23 22 -36 2 -28 -9 3 -15 0 -15 -10 0 -8 -5
-12 -10 -9 -15 9 -40 -13 -34 -29 3 -7 -1 -17 -8 -23 -15 -12 -68 -23 -68 -15
0 18 47 132 70 172 15 25 46 89 69 142 36 81 53 107 115 169 53 54 75 84 80
109 l7 35 -15 -31 c-7 -17 -21 -34 -31 -37 -9 -4 -14 -11 -11 -16 7 -11 -42
-44 -54 -36 -6 4 -13 0 -16 -9 -3 -8 -19 -18 -35 -21 -32 -7 -36 -17 -14 -35
11 -9 12 -16 2 -31 -6 -10 -19 -19 -28 -19 -9 0 -21 -12 -28 -26 -9 -22 -16
-25 -38 -20 -20 6 -24 4 -20 -9 10 -26 -10 -65 -34 -65 -18 0 -19 -2 -9 -15
17 -20 -7 -20 -34 0 -30 23 -80 19 -102 -7 l-19 -23 22 19 c39 33 98 -1 103
-59 4 -42 -1 -55 -25 -61 -28 -7 -31 -14 -13 -32 25 -25 -6 -11 -54 24 -42 31
-55 36 -89 31 -29 -4 -39 -2 -39 9 0 8 4 14 9 14 4 0 11 19 13 43 3 24 23 79
45 123 22 43 48 103 57 131 10 29 22 55 27 59 5 3 16 19 25 36 15 29 15 30 -1
24 -14 -5 -16 -2 -11 16 20 66 18 94 -6 122 -19 23 -34 29 -74 31 -27 2 -60 1
-74 -1z m-27 -641 c4 -3 0 -15 -10 -25 -18 -20 -4 -25 15 -6 19 19 27 0 9 -20
-18 -19 -14 -32 10 -32 7 0 13 11 13 25 0 14 5 25 10 25 6 0 10 -7 10 -15 0
-8 7 -15 15 -15 23 0 18 -27 -7 -35 -22 -6 -21 -7 10 -17 17 -6 32 -15 32 -19
0 -5 11 -19 25 -31 l25 -24 -31 -42 c-29 -39 -104 -90 -116 -79 -2 3 3 17 12
31 10 14 14 26 11 26 -3 0 -22 -24 -41 -54 -19 -30 -38 -57 -42 -59 -5 -3 -8
23 -8 56 -1 49 -7 75 -32 124 l-31 61 35 34 c20 18 42 48 49 66 14 31 24 39
37 25z m-112 -175 c26 -52 40 -151 28 -211 -11 -58 -41 -123 -79 -167 -29 -33
-37 -50 -24 -50 3 0 17 14 31 30 38 45 100 78 172 89 62 10 92 23 125 56 12
13 17 13 20 3 15 -57 33 -98 54 -125 23 -28 27 -30 38 -15 7 9 16 13 21 9 15
-16 -40 -48 -74 -42 -19 4 -52 -2 -85 -15 -86 -33 -102 -22 -48 32 36 36 38
44 7 23 -13 -8 -30 -27 -37 -43 -26 -50 -72 -91 -124 -108 -28 -9 -57 -21 -63
-27 -7 -5 -13 -6 -13 -1 0 4 -11 -3 -25 -16 -14 -13 -25 -28 -25 -34 0 -6 -11
-24 -25 -41 l-25 -30 6 40 c4 22 13 55 20 74 8 18 14 43 14 55 0 11 7 30 15
40 25 34 16 43 -11 11 -19 -23 -24 -25 -20 -10 3 11 2 47 -3 80 -10 72 2 110
48 146 66 51 101 81 101 89 0 5 -13 -4 -29 -18 -37 -34 -87 -72 -95 -72 -4 0
-2 9 4 20 7 13 7 20 1 20 -6 0 -20 -17 -31 -37 l-21 -38 4 81 c3 64 10 94 31
137 22 46 75 107 92 107 2 0 13 -19 25 -42z m453 16 c9 -8 16 -22 16 -30 0
-22 -70 -94 -92 -94 -15 0 -18 -5 -13 -20 3 -11 3 -20 -1 -20 -5 0 -67 35 -83
46 -6 5 90 108 113 121 28 17 42 16 60 -3z m-1598 -79 c30 -18 44 -32 42 -43
-2 -10 -11 -16 -22 -14 -11 2 -34 -12 -57 -34 -28 -27 -39 -33 -39 -22 0 10
-11 29 -24 43 -28 30 -39 74 -23 93 15 19 68 9 123 -23z m324 10 c38 -20 73
-67 99 -133 21 -52 21 -56 5 -134 -10 -48 -14 -101 -11 -130 3 -26 5 -48 3
-48 -2 0 -21 16 -42 36 -22 20 -51 42 -66 50 -16 8 -28 22 -28 32 0 12 -3 14
-8 4 -10 -15 -37 13 -70 71 -21 36 -32 78 -13 48 10 -15 15 -8 25 31 3 15 16
36 27 47 17 15 20 28 17 58 -3 23 1 47 10 61 17 26 15 26 52 7z m1096 -100 c9
-14 13 -32 9 -45 -5 -14 -2 -20 9 -20 9 0 16 -4 16 -10 0 -13 -17 -13 -25 1
-5 7 -15 3 -29 -10 -26 -24 -87 -51 -118 -51 -20 -1 -58 -13 -110 -35 -31 -13
20 93 66 137 49 48 68 57 123 57 34 1 46 -4 59 -24z m-643 -80 c32 -30 57 -59
57 -64 0 -5 3 -16 6 -24 5 -13 1 -13 -33 -2 -21 8 -58 14 -83 13 l-45 0 55 -9
c107 -18 189 -79 216 -161 19 -58 11 -77 -10 -26 -15 34 -122 136 -110 104 3
-9 9 -16 14 -16 19 0 75 -68 97 -119 20 -46 24 -68 21 -120 -2 -38 -9 -66 -16
-69 -7 -2 -12 -11 -12 -20 0 -9 -7 -25 -15 -35 -13 -18 -14 -17 -17 5 -3 18
-6 14 -12 -17 -5 -22 -23 -70 -41 -107 l-32 -68 -12 41 c-11 37 -11 43 8 63
12 12 21 26 21 32 0 5 -10 -4 -23 -19 l-22 -29 -18 41 c-30 67 -51 48 -23 -20
7 -19 17 -45 21 -58 l7 -24 -26 19 c-14 11 -26 23 -26 28 0 10 -39 49 -85 84
-24 19 -31 34 -36 75 l-6 52 -8 -43 c-6 -35 -10 -40 -22 -30 -8 6 -21 25 -30
42 -9 17 -21 34 -27 39 -7 5 -5 11 7 18 22 13 22 35 -2 42 -17 4 -18 10 -10
58 5 30 12 72 14 94 10 68 81 148 125 139 19 -4 22 -3 10 5 -12 8 -8 13 22 25
20 9 40 20 43 26 4 6 -19 -1 -51 -15 -31 -14 -66 -25 -78 -25 -14 0 -17 -3 -8
-8 9 -7 7 -13 -9 -28 l-21 -19 7 35 c3 19 7 45 8 58 2 32 26 51 94 72 32 10
58 19 59 19 0 1 26 -24 57 -54z m-868 -77 c7 -6 -1 -19 -23 -36 -18 -15 -32
-32 -32 -39 0 -6 -8 -9 -19 -6 -13 3 -28 -7 -51 -35 -31 -39 -115 -82 -161
-82 -26 0 -24 9 11 50 44 51 36 58 -11 11 -49 -47 -72 -44 -35 4 15 19 26 38
26 43 0 13 54 23 58 11 6 -15 15 -11 57 26 22 19 44 35 48 35 5 0 21 9 35 20
26 21 74 20 97 -2z m143 -70 c-2 -8 4 -11 12 -8 8 2 44 4 80 4 134 -2 259 -94
313 -231 31 -80 34 -97 12 -65 -9 12 -35 33 -58 47 -53 31 -95 74 -119 123
l-19 37 7 -35 c3 -19 14 -44 24 -55 19 -20 18 -20 -53 -21 -50 0 -81 -6 -102
-18 -27 -16 -28 -17 -5 -12 79 19 101 19 115 0 15 -19 15 -19 8 0 -15 44 123
-10 177 -69 l25 -27 -45 7 c-60 10 -117 33 -124 51 -3 8 -10 14 -15 14 -11 0
-2 -42 12 -51 5 -4 -14 -12 -42 -18 -55 -12 -97 -30 -146 -65 -30 -21 -79 -23
-102 -5 -6 6 -9 24 -7 42 l4 32 -15 -28 c-9 -15 -20 -25 -25 -22 -14 9 -12 35
2 35 6 0 4 7 -5 18 -10 10 -17 23 -17 29 0 5 -14 24 -31 42 -20 22 -28 38 -24
51 3 11 -2 31 -11 46 -21 31 -26 25 86 89 45 26 70 46 70 58 0 9 5 17 10 17 6
0 9 -6 8 -12z m1477 -82 c22 -8 41 -21 43 -29 6 -28 174 -152 206 -152 18 0
17 -25 -1 -31 -10 -3 -38 -14 -63 -25 -43 -19 -47 -19 -78 -4 -18 10 -44 34
-58 55 -25 37 -25 39 -9 67 l17 28 -20 -23 c-12 -13 -23 -18 -27 -12 -3 5 -11
10 -17 10 -6 0 -5 -8 4 -17 15 -18 58 -97 58 -108 0 -3 -8 -5 -17 -5 -39 0 -1
-11 56 -16 52 -4 67 -2 97 16 19 12 41 19 49 16 16 -6 21 -36 6 -36 -14 0 -39
-60 -34 -81 3 -10 12 -19 19 -19 8 0 14 -5 14 -11 0 -34 -104 31 -141 88 -12
18 -19 22 -19 12 0 -16 78 -93 116 -115 18 -11 17 -14 -22 -60 -23 -27 -51
-50 -63 -52 -11 -2 -21 -10 -21 -18 0 -8 -4 -14 -10 -14 -5 0 -10 4 -10 10 0
5 -7 7 -15 4 -9 -4 -15 -1 -15 7 0 8 -35 26 -83 44 -92 34 -147 46 -147 33 0
-4 -4 -8 -10 -8 -5 0 -10 7 -10 15 0 8 4 15 9 15 4 0 -2 21 -15 47 -13 25 -24
52 -24 59 0 6 -15 26 -32 44 -32 32 -32 33 -8 26 58 -15 81 -15 35 0 l-50 17
40 19 c53 25 139 19 192 -13 21 -13 41 -28 45 -33 5 -7 11 -7 20 2 9 9 9 12 0
12 -7 0 -12 7 -12 15 0 28 -42 99 -79 134 l-36 34 48 -27 c54 -31 65 -19 13
14 -29 17 -59 25 -156 41 -3 0 13 9 35 19 48 22 125 25 180 6z m-111 -83 c22
-16 50 -47 61 -68 11 -22 24 -43 29 -46 5 -4 7 -12 4 -19 -2 -7 -13 -4 -33 12
-36 28 -143 37 -202 17 -21 -7 -40 -13 -43 -14 -3 0 -11 -4 -18 -9 -7 -4 -19
-5 -27 -2 -8 3 -17 1 -20 -4 -4 -6 -1 -10 5 -10 20 0 0 -18 -54 -49 -29 -17
-74 -49 -100 -72 l-47 -42 7 29 c14 56 76 113 145 132 l34 10 -30 1 c-16 0
-39 -6 -49 -14 -29 -22 -42 -18 -20 6 24 27 147 128 196 161 32 22 43 24 79
18 22 -4 60 -21 83 -37z m-167 -190 c27 -24 70 -119 59 -130 -9 -9 -34 11 -49
40 -13 27 -16 29 -16 10 -1 -12 -6 -25 -12 -28 -14 -10 -189 -12 -189 -3 0 4
31 32 69 62 39 31 73 60 76 66 10 17 29 11 62 -17z"/>
</g>
</svg>
